<mxfile host="app.diagrams.net" agent="Mozilla/5.0 (Windows NT 10.0; Win64; x64) AppleWebKit/537.36 (KHTML, like Gecko) Chrome/132.0.0.0 Safari/537.36" version="26.0.6">
  <diagram id="Ht1M8jgEwFfnCIfOTk4-" name="Page-1">
    <mxGraphModel dx="2049" dy="1890" grid="1" gridSize="10" guides="1" tooltips="1" connect="1" arrows="1" fold="1" page="1" pageScale="1" pageWidth="1169" pageHeight="827" math="0" shadow="0">
      <root>
        <mxCell id="0" />
        <mxCell id="1" parent="0" />
        <mxCell id="FtYqA4JUKi0lPuKwGjm9-58" style="edgeStyle=orthogonalEdgeStyle;rounded=0;orthogonalLoop=1;jettySize=auto;html=1;" edge="1" parent="1" source="FtYqA4JUKi0lPuKwGjm9-3" target="FtYqA4JUKi0lPuKwGjm9-43">
          <mxGeometry relative="1" as="geometry" />
        </mxCell>
        <mxCell id="FtYqA4JUKi0lPuKwGjm9-3" value="users" style="sketch=0;outlineConnect=0;gradientColor=none;fontColor=#545B64;strokeColor=none;fillColor=#879196;dashed=0;verticalLabelPosition=bottom;verticalAlign=top;align=center;html=1;fontSize=12;fontStyle=0;aspect=fixed;shape=mxgraph.aws4.illustration_users;pointerEvents=1" vertex="1" parent="1">
          <mxGeometry x="60" y="-26" width="60" height="60" as="geometry" />
        </mxCell>
        <mxCell id="FtYqA4JUKi0lPuKwGjm9-38" value="" style="sketch=0;points=[[0,0,0],[0.25,0,0],[0.5,0,0],[0.75,0,0],[1,0,0],[0,1,0],[0.25,1,0],[0.5,1,0],[0.75,1,0],[1,1,0],[0,0.25,0],[0,0.5,0],[0,0.75,0],[1,0.25,0],[1,0.5,0],[1,0.75,0]];outlineConnect=0;fontColor=#232F3E;fillColor=#8C4FFF;strokeColor=#ffffff;dashed=0;verticalLabelPosition=bottom;verticalAlign=top;align=center;html=1;fontSize=12;fontStyle=0;aspect=fixed;shape=mxgraph.aws4.resourceIcon;resIcon=mxgraph.aws4.cloudfront;" vertex="1" parent="1">
          <mxGeometry x="254" y="110" width="58" height="58" as="geometry" />
        </mxCell>
        <mxCell id="FtYqA4JUKi0lPuKwGjm9-39" value="CloudFront" style="text;html=1;align=center;verticalAlign=middle;resizable=0;points=[];autosize=1;strokeColor=none;fillColor=none;" vertex="1" parent="1">
          <mxGeometry x="237" y="170" width="80" height="30" as="geometry" />
        </mxCell>
        <mxCell id="FtYqA4JUKi0lPuKwGjm9-40" value="" style="sketch=0;points=[[0,0,0],[0.25,0,0],[0.5,0,0],[0.75,0,0],[1,0,0],[0,1,0],[0.25,1,0],[0.5,1,0],[0.75,1,0],[1,1,0],[0,0.25,0],[0,0.5,0],[0,0.75,0],[1,0.25,0],[1,0.5,0],[1,0.75,0]];outlineConnect=0;fontColor=#232F3E;fillColor=#7AA116;strokeColor=#ffffff;dashed=0;verticalLabelPosition=bottom;verticalAlign=top;align=center;html=1;fontSize=12;fontStyle=0;aspect=fixed;shape=mxgraph.aws4.resourceIcon;resIcon=mxgraph.aws4.s3;" vertex="1" parent="1">
          <mxGeometry x="540" y="110" width="68" height="68" as="geometry" />
        </mxCell>
        <mxCell id="FtYqA4JUKi0lPuKwGjm9-43" value="" style="sketch=0;points=[[0,0,0],[0.25,0,0],[0.5,0,0],[0.75,0,0],[1,0,0],[0,1,0],[0.25,1,0],[0.5,1,0],[0.75,1,0],[1,1,0],[0,0.25,0],[0,0.5,0],[0,0.75,0],[1,0.25,0],[1,0.5,0],[1,0.75,0]];outlineConnect=0;fontColor=#232F3E;fillColor=#DD344C;strokeColor=#ffffff;dashed=0;verticalLabelPosition=bottom;verticalAlign=top;align=center;html=1;fontSize=12;fontStyle=0;aspect=fixed;shape=mxgraph.aws4.resourceIcon;resIcon=mxgraph.aws4.cognito;" vertex="1" parent="1">
          <mxGeometry x="249" y="-30" width="68" height="68" as="geometry" />
        </mxCell>
        <mxCell id="FtYqA4JUKi0lPuKwGjm9-44" value="Cognito" style="text;html=1;align=center;verticalAlign=middle;resizable=0;points=[];autosize=1;strokeColor=none;fillColor=none;" vertex="1" parent="1">
          <mxGeometry x="249" y="-60" width="60" height="30" as="geometry" />
        </mxCell>
        <mxCell id="FtYqA4JUKi0lPuKwGjm9-82" style="edgeStyle=orthogonalEdgeStyle;rounded=0;orthogonalLoop=1;jettySize=auto;html=1;" edge="1" parent="1" source="FtYqA4JUKi0lPuKwGjm9-45">
          <mxGeometry relative="1" as="geometry">
            <mxPoint x="320" y="9" as="targetPoint" />
          </mxGeometry>
        </mxCell>
        <mxCell id="FtYqA4JUKi0lPuKwGjm9-95" style="edgeStyle=orthogonalEdgeStyle;rounded=0;orthogonalLoop=1;jettySize=auto;html=1;" edge="1" parent="1" source="FtYqA4JUKi0lPuKwGjm9-45" target="FtYqA4JUKi0lPuKwGjm9-55">
          <mxGeometry relative="1" as="geometry" />
        </mxCell>
        <mxCell id="FtYqA4JUKi0lPuKwGjm9-45" value="" style="sketch=0;points=[[0,0,0],[0.25,0,0],[0.5,0,0],[0.75,0,0],[1,0,0],[0,1,0],[0.25,1,0],[0.5,1,0],[0.75,1,0],[1,1,0],[0,0.25,0],[0,0.5,0],[0,0.75,0],[1,0.25,0],[1,0.5,0],[1,0.75,0]];outlineConnect=0;fontColor=#232F3E;fillColor=#8C4FFF;strokeColor=#ffffff;dashed=0;verticalLabelPosition=bottom;verticalAlign=top;align=center;html=1;fontSize=12;fontStyle=0;aspect=fixed;shape=mxgraph.aws4.resourceIcon;resIcon=mxgraph.aws4.api_gateway;" vertex="1" parent="1">
          <mxGeometry x="722" y="-20" width="58" height="58" as="geometry" />
        </mxCell>
        <mxCell id="FtYqA4JUKi0lPuKwGjm9-47" value="API Gateway" style="text;html=1;align=center;verticalAlign=middle;resizable=0;points=[];autosize=1;strokeColor=none;fillColor=none;" vertex="1" parent="1">
          <mxGeometry x="774" y="-50" width="90" height="30" as="geometry" />
        </mxCell>
        <mxCell id="FtYqA4JUKi0lPuKwGjm9-48" value="" style="sketch=0;points=[[0,0,0],[0.25,0,0],[0.5,0,0],[0.75,0,0],[1,0,0],[0,1,0],[0.25,1,0],[0.5,1,0],[0.75,1,0],[1,1,0],[0,0.25,0],[0,0.5,0],[0,0.75,0],[1,0.25,0],[1,0.5,0],[1,0.75,0]];outlineConnect=0;fontColor=#232F3E;fillColor=#ED7100;strokeColor=#ffffff;dashed=0;verticalLabelPosition=bottom;verticalAlign=top;align=center;html=1;fontSize=12;fontStyle=0;aspect=fixed;shape=mxgraph.aws4.resourceIcon;resIcon=mxgraph.aws4.lambda;" vertex="1" parent="1">
          <mxGeometry x="712" y="220.01" width="78" height="78" as="geometry" />
        </mxCell>
        <mxCell id="FtYqA4JUKi0lPuKwGjm9-49" value="Lambda" style="text;html=1;align=center;verticalAlign=middle;resizable=0;points=[];autosize=1;strokeColor=none;fillColor=none;" vertex="1" parent="1">
          <mxGeometry x="750" y="194.13" width="70" height="30" as="geometry" />
        </mxCell>
        <mxCell id="FtYqA4JUKi0lPuKwGjm9-50" value="" style="outlineConnect=0;dashed=0;verticalLabelPosition=bottom;verticalAlign=top;align=center;html=1;shape=mxgraph.aws3.dynamo_db;fillColor=#2E73B8;gradientColor=none;" vertex="1" parent="1">
          <mxGeometry x="360" y="224.13" width="62" height="69.75" as="geometry" />
        </mxCell>
        <mxCell id="FtYqA4JUKi0lPuKwGjm9-51" value="DynamoDB" style="text;html=1;align=center;verticalAlign=middle;resizable=0;points=[];autosize=1;strokeColor=none;fillColor=none;" vertex="1" parent="1">
          <mxGeometry x="351" y="293.88" width="80" height="30" as="geometry" />
        </mxCell>
        <mxCell id="FtYqA4JUKi0lPuKwGjm9-85" style="edgeStyle=orthogonalEdgeStyle;rounded=0;orthogonalLoop=1;jettySize=auto;html=1;" edge="1" parent="1" source="FtYqA4JUKi0lPuKwGjm9-53">
          <mxGeometry relative="1" as="geometry">
            <mxPoint x="1360.0000000000002" y="441" as="targetPoint" />
          </mxGeometry>
        </mxCell>
        <mxCell id="FtYqA4JUKi0lPuKwGjm9-53" value="" style="sketch=0;points=[[0,0,0],[0.25,0,0],[0.5,0,0],[0.75,0,0],[1,0,0],[0,1,0],[0.25,1,0],[0.5,1,0],[0.75,1,0],[1,1,0],[0,0.25,0],[0,0.5,0],[0,0.75,0],[1,0.25,0],[1,0.5,0],[1,0.75,0]];outlineConnect=0;fontColor=#232F3E;fillColor=#E7157B;strokeColor=#ffffff;dashed=0;verticalLabelPosition=bottom;verticalAlign=top;align=center;html=1;fontSize=12;fontStyle=0;aspect=fixed;shape=mxgraph.aws4.resourceIcon;resIcon=mxgraph.aws4.sns;" vertex="1" parent="1">
          <mxGeometry x="810" y="404" width="74" height="74" as="geometry" />
        </mxCell>
        <mxCell id="FtYqA4JUKi0lPuKwGjm9-76" style="edgeStyle=orthogonalEdgeStyle;rounded=0;orthogonalLoop=1;jettySize=auto;html=1;endArrow=none;endFill=0;startArrow=blockThin;startFill=1;" edge="1" parent="1" source="FtYqA4JUKi0lPuKwGjm9-55" target="FtYqA4JUKi0lPuKwGjm9-48">
          <mxGeometry relative="1" as="geometry" />
        </mxCell>
        <mxCell id="FtYqA4JUKi0lPuKwGjm9-55" value="" style="sketch=0;points=[[0,0,0],[0.25,0,0],[0.5,0,0],[0.75,0,0],[1,0,0],[0,1,0],[0.25,1,0],[0.5,1,0],[0.75,1,0],[1,1,0],[0,0.25,0],[0,0.5,0],[0,0.75,0],[1,0.25,0],[1,0.5,0],[1,0.75,0]];points=[[0,0,0],[0.25,0,0],[0.5,0,0],[0.75,0,0],[1,0,0],[0,1,0],[0.25,1,0],[0.5,1,0],[0.75,1,0],[1,1,0],[0,0.25,0],[0,0.5,0],[0,0.75,0],[1,0.25,0],[1,0.5,0],[1,0.75,0]];outlineConnect=0;fontColor=#232F3E;fillColor=#E7157B;strokeColor=#ffffff;dashed=0;verticalLabelPosition=bottom;verticalAlign=top;align=center;html=1;fontSize=12;fontStyle=0;aspect=fixed;shape=mxgraph.aws4.resourceIcon;resIcon=mxgraph.aws4.cloudwatch_2;" vertex="1" parent="1">
          <mxGeometry x="970" y="220.01" width="78" height="78" as="geometry" />
        </mxCell>
        <mxCell id="FtYqA4JUKi0lPuKwGjm9-61" style="edgeStyle=orthogonalEdgeStyle;rounded=0;orthogonalLoop=1;jettySize=auto;html=1;entryX=0.103;entryY=0.421;entryDx=0;entryDy=0;entryPerimeter=0;" edge="1" parent="1" source="FtYqA4JUKi0lPuKwGjm9-43" target="FtYqA4JUKi0lPuKwGjm9-45">
          <mxGeometry relative="1" as="geometry" />
        </mxCell>
        <mxCell id="FtYqA4JUKi0lPuKwGjm9-64" style="edgeStyle=orthogonalEdgeStyle;rounded=0;orthogonalLoop=1;jettySize=auto;html=1;entryX=0.5;entryY=0;entryDx=0;entryDy=0;entryPerimeter=0;startArrow=block;startFill=1;" edge="1" parent="1" source="FtYqA4JUKi0lPuKwGjm9-43" target="FtYqA4JUKi0lPuKwGjm9-38">
          <mxGeometry relative="1" as="geometry" />
        </mxCell>
        <mxCell id="FtYqA4JUKi0lPuKwGjm9-65" style="edgeStyle=orthogonalEdgeStyle;rounded=0;orthogonalLoop=1;jettySize=auto;html=1;entryX=0;entryY=0.5;entryDx=0;entryDy=0;entryPerimeter=0;startArrow=classic;startFill=0;" edge="1" parent="1" source="FtYqA4JUKi0lPuKwGjm9-38" target="FtYqA4JUKi0lPuKwGjm9-40">
          <mxGeometry relative="1" as="geometry">
            <Array as="points">
              <mxPoint x="370" y="144" />
              <mxPoint x="370" y="144" />
            </Array>
          </mxGeometry>
        </mxCell>
        <mxCell id="FtYqA4JUKi0lPuKwGjm9-69" style="edgeStyle=orthogonalEdgeStyle;rounded=0;orthogonalLoop=1;jettySize=auto;html=1;entryX=1;entryY=0.5;entryDx=0;entryDy=0;entryPerimeter=0;startArrow=blockThin;startFill=1;" edge="1" parent="1" source="FtYqA4JUKi0lPuKwGjm9-48" target="FtYqA4JUKi0lPuKwGjm9-50">
          <mxGeometry relative="1" as="geometry" />
        </mxCell>
        <mxCell id="FtYqA4JUKi0lPuKwGjm9-72" style="edgeStyle=orthogonalEdgeStyle;rounded=0;orthogonalLoop=1;jettySize=auto;html=1;exitX=0;exitY=0.25;exitDx=0;exitDy=0;exitPerimeter=0;entryX=0.5;entryY=1;entryDx=0;entryDy=0;entryPerimeter=0;" edge="1" parent="1" source="FtYqA4JUKi0lPuKwGjm9-48" target="FtYqA4JUKi0lPuKwGjm9-40">
          <mxGeometry relative="1" as="geometry" />
        </mxCell>
        <mxCell id="FtYqA4JUKi0lPuKwGjm9-74" style="edgeStyle=orthogonalEdgeStyle;rounded=0;orthogonalLoop=1;jettySize=auto;html=1;entryX=0.5;entryY=1;entryDx=0;entryDy=0;entryPerimeter=0;" edge="1" parent="1" source="FtYqA4JUKi0lPuKwGjm9-48" target="FtYqA4JUKi0lPuKwGjm9-45">
          <mxGeometry relative="1" as="geometry" />
        </mxCell>
        <mxCell id="FtYqA4JUKi0lPuKwGjm9-80" value="SNS" style="text;html=1;align=center;verticalAlign=middle;resizable=0;points=[];autosize=1;strokeColor=none;fillColor=none;" vertex="1" parent="1">
          <mxGeometry x="822" y="478" width="50" height="30" as="geometry" />
        </mxCell>
        <mxCell id="FtYqA4JUKi0lPuKwGjm9-81" value="CloudWatch" style="text;html=1;align=center;verticalAlign=middle;resizable=0;points=[];autosize=1;strokeColor=none;fillColor=none;" vertex="1" parent="1">
          <mxGeometry x="964" y="293.88" width="90" height="30" as="geometry" />
        </mxCell>
        <mxCell id="FtYqA4JUKi0lPuKwGjm9-84" style="edgeStyle=orthogonalEdgeStyle;rounded=0;orthogonalLoop=1;jettySize=auto;html=1;entryX=0.5;entryY=1;entryDx=0;entryDy=0;entryPerimeter=0;startArrow=block;startFill=1;endArrow=none;endFill=0;" edge="1" parent="1" source="FtYqA4JUKi0lPuKwGjm9-53" target="FtYqA4JUKi0lPuKwGjm9-48">
          <mxGeometry relative="1" as="geometry" />
        </mxCell>
        <mxCell id="FtYqA4JUKi0lPuKwGjm9-96" value="AWS Cloud" style="points=[[0,0],[0.25,0],[0.5,0],[0.75,0],[1,0],[1,0.25],[1,0.5],[1,0.75],[1,1],[0.75,1],[0.5,1],[0.25,1],[0,1],[0,0.75],[0,0.5],[0,0.25]];outlineConnect=0;gradientColor=none;html=1;whiteSpace=wrap;fontSize=12;fontStyle=0;container=1;pointerEvents=0;collapsible=0;recursiveResize=0;shape=mxgraph.aws4.group;grIcon=mxgraph.aws4.group_aws_cloud_alt;strokeColor=#232F3E;fillColor=none;verticalAlign=top;align=left;spacingLeft=30;fontColor=#232F3E;dashed=0;" vertex="1" parent="1">
          <mxGeometry x="20" y="-210" width="1450" height="810" as="geometry" />
        </mxCell>
        <mxCell id="FtYqA4JUKi0lPuKwGjm9-52" value="Admin/Users" style="sketch=0;html=1;aspect=fixed;strokeColor=none;shadow=0;fillColor=#3B8DF1;verticalAlign=top;labelPosition=center;verticalLabelPosition=bottom;shape=mxgraph.gcp2.connected" vertex="1" parent="FtYqA4JUKi0lPuKwGjm9-96">
          <mxGeometry x="1340" y="614" width="77.78" height="56" as="geometry" />
        </mxCell>
        <mxCell id="FtYqA4JUKi0lPuKwGjm9-97" value="AWS Step Functions workflow" style="points=[[0,0],[0.25,0],[0.5,0],[0.75,0],[1,0],[1,0.25],[1,0.5],[1,0.75],[1,1],[0.75,1],[0.5,1],[0.25,1],[0,1],[0,0.75],[0,0.5],[0,0.25]];outlineConnect=0;gradientColor=none;html=1;whiteSpace=wrap;fontSize=12;fontStyle=0;container=1;pointerEvents=0;collapsible=0;recursiveResize=0;shape=mxgraph.aws4.group;grIcon=mxgraph.aws4.group_aws_step_functions_workflow;strokeColor=#CD2264;fillColor=none;verticalAlign=top;align=left;spacingLeft=30;fontColor=#CD2264;dashed=0;" vertex="1" parent="1">
          <mxGeometry x="190" y="-140" width="920" height="680" as="geometry" />
        </mxCell>
        <mxCell id="FtYqA4JUKi0lPuKwGjm9-41" value="S3" style="text;html=1;align=center;verticalAlign=middle;resizable=0;points=[];autosize=1;strokeColor=none;fillColor=none;" vertex="1" parent="FtYqA4JUKi0lPuKwGjm9-97">
          <mxGeometry x="364" y="220" width="40" height="30" as="geometry" />
        </mxCell>
      </root>
    </mxGraphModel>
  </diagram>
</mxfile>
